# xmcd
#
# Track frame offsets:
#  182
#  17485
#  50580
#  72610
#  100060
#  132460
#  168085
#  187960
#  208960
#  237835
#  267160
#
# Disc length: 3950 seconds
#
# Revision: 1
# Processed by: cddbd v1.5.2PL0 Copyright (c) Steve Scherf et al.
# Submitted via: Collectorz.com_Music_Collector 6.11
#
DISCID=9a0f6c0b
DTITLE=Eric Clapton - The Blue Sheriff
DYEAR=1991
DGENRE=Blues
TTITLE0=Tulsa Time
TTITLE1=I Shot The Sheriff
TTITLE2=Lay Down Sally
TTITLE3=Worried Life Blues
TTITLE4=Let It Rain
TTITLE5=Double Trouble
TTITLE6=Sweet Eliza
TTITLE7=Wonderful Tonight
TTITLE8=Blues Power
TTITLE9=Cocaine
TTITLE10=Layla
EXTD=
EXTT0=
EXTT1=
EXTT2=
EXTT3=
EXTT4=
EXTT5=
EXTT6=
EXTT7=
EXTT8=
EXTT9=
EXTT10=
PLAYORDER=
